<svg viewBox="0 0 32 32" fill="none" xmlns="http://www.w3.org/2000/svg">
<g clip-path="url(#clip0_2_2)">
<path d="M16 8.7033L8 13.4505V13.6264V4.04396L16 0L24 4.57143V13.5385L16 8.7033Z" fill="#EE5B31"/>
<path d="M24 32L16 27.2527L24 22.5055V13.8022L32 18.3736V27.5165L24 32Z" fill="#53AD00"/>
<path d="M8 32L0 27.4286V18.2857L8 13.5385V22.5055L16 27.2528L8 32Z" fill="#045ACA"/>
<path d="M24 22.5055L16 27.2528L8 22.5055V13.5385L16 8.79121L24 13.5385V22.5055Z" fill="#FED929"/>
<path d="M24 32L16.0879 27.2527L15.9121 27.3407L15.8242 27.2527L7.91208 31.9121L0.263733 27.5165L15.9121 17.7582L31.5604 27.5165L24 32Z" fill="#2E2E2E" fill-opacity="0.1"/>
</g>
<defs>
<clipPath id="clip0_2_2">
<rect width="32" height="32" fill="white"/>
</clipPath>
</defs>
</svg>
