<?xml version="1.0" encoding="utf-8"?>
<!-- Generator: Adobe Illustrator 19.2.0, SVG Export Plug-In . SVG Version: 6.00 Build 0)  -->
<svg version="1.1" id="Layer_1" xmlns:sketch="http://www.bohemiancoding.com/sketch/ns"
	 xmlns="http://www.w3.org/2000/svg" xmlns:xlink="http://www.w3.org/1999/xlink" x="0px" y="0px" viewBox="0 0 36.4 36.4"
	 style="enable-background:new 0 0 36.4 36.4;" xml:space="preserve">
<style type="text/css">
	.st0{fill:#EE5B31;}
	.st1{fill:#53AD00;}
	.st2{fill:#045ACA;}
	.st3{fill:#FED929;}
	.st4{fill:#2E2E2E;fill-opacity:0.1;}
</style>
<path id="Shape" class="st0" d="M18.2,9.9l-9.1,5.4v0.2V4.6L18.2,0l9.1,5.2v10.2L18.2,9.9L18.2,9.9z"/>
<path id="Shape_1_" class="st1" d="M27.3,36.4L18.2,31l9.1-5.4v-9.9l9.1,5.2v10.4L27.3,36.4L27.3,36.4z"/>
<path id="Shape_2_" class="st2" d="M9.1,36.4L0,31.2V20.8l9.1-5.4v10.2l9.1,5.4L9.1,36.4L9.1,36.4z"/>
<path id="Shape_3_" class="st3" d="M27.3,25.6L18.2,31l-9.1-5.4V15.4l9.1-5.4l9.1,5.4V25.6L27.3,25.6z"/>
<path id="Shape_4_" class="st4" d="M27.3,36.4l-9-5.4l-0.2,0.1L18,31l-9,5.3l-8.7-5l17.8-11.1l17.8,11.1L27.3,36.4L27.3,36.4z"/>
</svg>
